PathFileType	4	(X/Y/Z)	Patient4_TMGait_0pt4_01_right_27.trc.trc
DataRate	CameraRate	NumFrames	NumMarkers	Units	OrigDataRate	OrigDataStartFrame	OrigNumFrames
76.923076923077	76.923076923077	6	33	mm	76.923076923077	53	       141
Frame#	Time	Sacral			L.Shoulder			Chest			R.Shoulder			Neck			R.ASIS			L.ASIS			R.Thigh.Superior			R.Thigh.Lateral			R.Thigh.Inferior			R.Patella			L.Thigh.Superior			L.Thigh.Lateral			L.Thigh.Inferior			L.Patella			L.Shank.Superior			L.Shank.Lateral			L.Shank.Inferior			R.Shank.Superior			R.Shank.Lateral			R.Shank.Inferior			R.Heel			R.Midfoot.Superior			R.Midfoot.Lateral			R.Toe			L.Heel			L.Midfoot.Lateral			L.Midfoot.Superior			L.Toe			L.Elbow			L.Wrist			R.Elbow			R.Wrist			
		X1	Y1	Z1	X2	Y2	Z2	X3	Y3	Z3	X4	Y4	Z4	X5	Y5	Z5	X6	Y6	Z6	X7	Y7	Z7	X8	Y8	Z8	X9	Y9	Z9	X10	Y10	Z10	X11	Y11	Z11	X12	Y12	Z12	X13	Y13	Z13	X14	Y14	Z14	X15	Y15	Z15	X16	Y16	Z16	X17	Y17	Z17	X18	Y18	Z18	X19	Y19	Z19	X20	Y20	Z20	X21	Y21	Z21	X22	Y22	Z22	X23	Y23	Z23	X24	Y24	Z24	X25	Y25	Z25	X26	Y26	Z26	X27	Y27	Z27	X28	Y28	Z28	X29	Y29	Z29	X30	Y30	Z30	X31	Y31	Z31	X32	Y32	Z32	X33	Y33	Z33	

53	35.496000000000	883.311267430012	1002.972669111164	535.656314318436	1033.702935429016	1436.269750650976	340.170435585330	1148.069763202440	1378.320976284957	497.874528524460	1066.185990965804	1450.274095091889	673.735154776254	1024.188079904519	1499.337939334652	496.342030267055	1118.364641910503	947.298662086982	644.059925342068	1093.314792151412	969.838521325208	371.349733073427	1147.230604732632	738.872655178659	611.078979748546	1060.433978971197	632.201875465409	672.306995887231	1131.567326631691	577.453648519273	589.975007264501	1125.120088577043	490.757515485200	593.356463667954	1181.522134231266	787.768901780308	399.051367148936	1140.860785115738	659.995830733628	317.731846247341	1246.373459556341	600.505792185540	376.132161557860	1262.970183365384	513.882533296347	368.149367405774	1205.379485565218	442.043124941076	359.505405374638	1072.373078196197	380.397249501614	308.649720733995	1079.417945088077	249.813818884865	361.887234296054	1094.574469022230	402.061762469815	600.032710862753	1021.632494643946	300.312702097651	664.694932770674	1056.237580800491	205.257490308126	596.196796206393	915.063770357951	43.242636329998	568.763019072597	1087.728235993447	96.974580370071	599.458931566770	1000.492931279373	36.964873181965	641.091678642355	1208.615375383393	43.742121318477	622.185772255908	901.187151086747	157.538221764904	396.726407765240	965.096281414721	121.310357313555	316.893126763843	1067.364838485943	145.237750511838	339.742647595403	1160.715094777520	46.076391615793	311.879122587908	959.448191961795	1088.278807916066	239.632369540725	982.030284518432	828.504789642137	229.586322314051	1121.101294290723	1123.807843027223	827.451587983928	1365.686798008285	1061.549301276843	793.369541552600	
54	35.509000000000	882.431989910062	1003.793201875360	537.418606928162	1031.639326838364	1437.047767961204	341.781638203579	1147.597664387755	1378.576360768509	498.146720370496	1067.733365385575	1450.402060165837	674.939149986554	1023.830370580176	1499.738565951533	498.059577089162	1117.797584166879	947.230903967296	644.160487465223	1091.271811077920	970.551654080896	371.631375454149	1144.190550689965	738.345285273381	610.728286665611	1056.808943151673	632.356079707596	672.679959132791	1126.706334199390	577.042001229859	589.901909061102	1119.570827010200	490.720674890929	593.410174401294	1180.098264875510	789.677991864289	399.308877002000	1140.260196332853	661.488283544136	317.955988679416	1246.139961036291	602.874799566685	376.245069617004	1264.217059494144	517.489159618132	368.182928797872	1209.875933744926	444.497970799705	359.416977978098	1080.444698102776	375.907683445395	308.792991996393	1095.073473528702	245.734199147508	361.507810407086	1089.076665335028	402.067806226742	600.209725035173	1016.208127087238	300.314623722677	664.902721150528	1050.832694858316	205.309254014898	596.344648386869	909.785496192972	43.193524121243	568.785457218792	1082.452757327527	96.971160746941	599.510684318691	995.219178713457	36.944181015116	641.141189195452	1203.313474846099	43.781091526801	622.170926094026	922.934584017708	142.850231841637	396.850245423153	988.357188805601	111.205986077853	316.372118772823	1088.964671472113	141.080137268759	338.933372800099	1187.886287005219	48.347414443200	309.814143317721	950.962904353278	1090.120692628351	243.566869565541	969.550595442756	829.925736281723	234.814090793411	1128.806609869148	1124.518989563964	827.060648773234	1374.537706109097	1070.065409063795	789.595694823344	
55	35.522000000000	881.593668115843	1004.502876190600	539.066809992939	1029.746807665452	1437.694968206302	343.278982461204	1147.239290142362	1378.650632664072	498.304601743127	1069.384883113013	1450.359333384038	676.003900376584	1023.587309265094	1500.012409299949	499.657221546371	1117.240117522280	947.049245113839	644.084229234154	1089.241013181942	971.084037851886	371.716308419549	1141.218446199026	737.800046018347	610.278576668246	1053.326579920608	632.476026468847	673.031927336798	1121.967567642998	576.621606377744	589.803756291139	1114.175542036873	490.658159830345	593.502146548607	1178.267195752604	791.007511513488	399.384907041253	1139.019771020401	662.480834375125	318.024051289580	1244.981904117320	604.491978634979	376.453843004511	1264.474355935721	520.587596777171	368.257930448425	1213.646555055582	446.662204470661	359.280815968253	1088.554942147482	370.830797950056	308.674513901102	1111.195890968098	241.511990242761	360.918456980789	1083.700552954512	402.049259506512	600.407456176064	1010.876067103170	300.308056888668	665.120122558217	1045.474520216513	205.339831608609	596.495582589204	904.509603144604	43.154145116930	568.805845057009	1077.187507112459	96.953240180369	599.562413950222	989.953771934315	36.916433597650	641.185663903677	1198.029292030599	43.780133500530	622.164197740470	946.112767172627	127.844192386728	396.592532087214	1012.986510504696	100.941667613115	315.611491590242	1111.516040236727	136.938969235258	337.963436143922	1215.951699967575	51.109507829690	307.871175350162	943.048598330730	1091.892614051719	247.365593933986	957.886500816453	831.351821411355	239.869557450189	1136.291435813029	1125.088697138386	826.394734495283	1382.824981623247	1078.138430836069	785.502637533079	
56	35.535000000000	880.794317007206	1005.069404159069	540.585918830378	1028.031656923697	1438.195715530358	344.644472841959	1146.980793749382	1378.533568444782	498.348739985293	1071.099072582117	1450.133996604253	676.921457951003	1023.450892295398	1500.147070268406	501.121509919557	1116.696157344059	946.764868917942	643.848886082822	1087.226551225889	971.400107310135	371.622765471855	1138.367235716261	737.242430232914	609.786107998662	1050.021641750481	632.551341265510	673.370524046152	1117.422263045327	576.193328218996	589.714091397517	1109.001291568716	490.554832067203	593.641856925726	1176.048882543831	791.731497537219	399.310754815440	1137.207373183180	662.973240631928	317.923096654990	1242.964935298905	605.353253181332	376.786520432485	1263.821122427306	523.165255094142	368.404027570684	1216.706386878267	448.561073003329	359.130677444672	1096.712534315152	365.407455605873	308.283289076213	1127.558738276283	237.445781801878	360.176248684926	1078.498933033340	401.999247303507	600.630340310373	1005.670264921615	300.290240397673	665.346599081350	1040.187499765687	205.341987247343	596.650476317861	899.239312879289	43.127505353282	568.829654833463	1071.935346120130	96.921601061009	599.615398568281	984.698356563692	36.882196867648	641.226306880133	1192.764927883620	43.740801103768	622.167753372489	970.373447457301	113.170733112955	395.958404081259	1038.642773318061	91.011010072423	314.684429458879	1134.686466469901	133.131961334137	336.938607089665	1244.403245804897	54.478851520184	306.293435458892	935.752420635751	1093.542914660274	250.985937786262	947.080165958881	832.724592063086	244.697173967958	1143.543894934077	1125.492460838062	825.465830122277	1390.561969996120	1085.678936583212	781.142389938236	
57	35.548000000000	880.029991102609	1005.476146247931	541.957725600197	1026.493725822577	1438.548808810580	345.860034225513	1146.803532371277	1378.232071133633	498.279285055594	1072.830252212663	1449.730954887039	677.682936189777	1023.407054406914	1500.142902611633	502.437606452705	1116.170122178832	946.397110031690	643.473903696584	1085.241192522057	971.486838749272	371.370636101295	1135.681276469224	736.677756092575	609.301560880048	1046.913224582719	632.577657033932	673.694475747709	1113.124582344422	575.759493778054	589.655979259030	1104.096169558052	490.399135423246	593.826349314750	1173.475622023137	791.855160831002	399.111203785669	1134.896416226870	662.995045275673	317.636512757160	1240.182434464897	605.496600485115	377.232300418450	1262.357133241666	525.238897735009	368.629272978242	1219.085901565372	450.229916376267	358.990820468796	1104.891528967990	359.876303407112	307.623629528459	1143.901177989989	233.796418219052	359.348564344103	1073.508500148373	401.913600749920	600.873382243309	1000.612740450417	300.261784964069	665.575279465741	1034.988311520278	205.312696053818	596.807767716257	893.977176300495	43.115788657022	568.860705469668	1066.697776148114	96.878484276596	599.670449684854	979.453483358458	36.842992211986	641.264694614591	1187.520418585594	43.667526828405	622.181691280937	995.268607817865	99.412864232982	394.986566208811	1064.905776038607	81.828736354735	313.688916154536	1158.101771403899	129.911233902074	335.973161602677	1272.728430963710	58.495318603330	305.321066219210	929.111106282794	1095.033294531840	254.381885274875	937.170201422434	833.999207411424	249.242693237530	1150.546164617897	1125.718993162585	824.274780243534	1397.764421818252	1092.603930374605	776.565300447111	
58	35.561000000000	879.297200993105	1005.720938467348	543.163195641781	1025.126368827741	1438.764729230159	346.908544330574	1146.685521845658	1377.767875844771	498.096296997621	1074.530840595087	1449.170141575570	678.279573616202	1023.436449735012	1500.011312921130	503.589738080267	1115.668385363553	945.970503573309	642.979625505347	1083.304918573872	971.352589346741	370.979287218285	1133.195092970772	736.111080830673	608.863713052244	1044.007636185067	632.555939797112	673.993720479693	1109.111289770698	575.323039257183	589.639786885617	1099.490434918694	490.183649423795	594.042388772703	1170.596487267564	791.415809246203	398.804312244172	1132.167335927238	662.599279691128	317.151679948565	1236.758520494532	604.997563364200	377.743994381623	1260.201129379816	526.846235440991	368.920817215346	1220.829392580997	451.704603697933	358.872925811724	1113.019537343366	354.456995554140	306.723826703967	1159.932423319795	230.763068713747	358.505093169180	1068.751263182692	401.789892419222	601.123704937161	995.715534134725	300.226579210989	665.795274579832	1029.887076482311	205.252950377644	596.964109226695	888.724708869638	43.121153434474	568.901232254482	1061.475266279686	96.827122009712	599.727904286046	974.218788582485	36.801231843898	641.302557504781	1182.294308316810	43.566407868863	622.205028887787	1020.264218597707	87.049221475219	393.752764160669	1091.274836685469	73.704492284815	312.738607759694	1181.346175811452	127.439600835404	335.174043505403	1300.409419536211	63.101256008018	305.149357801644	923.150951386576	1096.338579113034	257.504401348014	928.193021366656	835.143303484315	253.452143080226	1157.272372915457	1125.769533386736	822.814549802604	1404.448999520219	1098.839486160958	771.819833088576	
